# xmcd
#
# Track frame offsets: 
#        150
#        20933
#        41822
#        55532
#        72112
#
# Disc length: 1322 seconds
#
# Revision: 0
# Processed by: cddbd v1.5.2PL0 Copyright (c) Steve Scherf et al.
# Submitted via: ExactAudioCopy v0.99pb4
#
DISCID=40052805
DTITLE=The Cats-A-Renos - Down In Hollywood
DYEAR=2010
DGENRE=Blues
TTITLE0=Every Time I Roll the Dice [Barnes, Seals]
TTITLE1=Naked [Capasso, Montieth]
TTITLE2=Think About Elvis [Morgan]
TTITLE3=Two-Time My Lovin' [Wilson]
TTITLE4=Beat Up Guitar [Hahn, Patrick, Vivino]
EXTD=
EXTT0=
EXTT1=
EXTT2=
EXTT3=
EXTT4=
PLAYORDER=
